# xmcd
#
# Track frame offsets:
#	150
#	15085
#	34265
#	53315
#	71795
#	90030
#	109782
#	127440
#	143650
#	160995
#	175872
#
# Disc length: 2602 seconds
#
# Revision: 3
# Processed by: cddbd v1.5.2PL0 Copyright (c) Steve Scherf et al.
# Submitted via: EasyCDDAExtractor 15.3.0.1
#
DISCID=850a280b
DTITLE=Chayanne - Mi Tiempo
DYEAR=2007
DGENRE=Latin
TTITLE0=Si Nos Quedara Poco Tiempo
TTITLE1=Lola
TTITLE2=Cuestion De Feeling
TTITLE3=Tengo Miedo
TTITLE4=Indispensable
TTITLE5=Bailarina
TTITLE6=Te Amare
TTITLE7=Sin Palabras De Relleno
TTITLE8=Me Voy A Rio
TTITLE9=Loco Por Vos
TTITLE10=Juicio Final
EXTD=YEAR: 2007
EXTT0=
EXTT1=
EXTT2=
EXTT3=
EXTT4=
EXTT5=
EXTT6=
EXTT7=
EXTT8=
EXTT9=
EXTT10=
PLAYORDER=
